# xmcd
#
# Track frame offsets:
#	150
#	16624
#	36153
#	60935
#	83558
#	99048
#
# Disc length: 1551 seconds
#
# Revision: 2
# Processed by: cddbd v1.5.2PL0 Copyright (c) Steve Scherf et al.
# Submitted via: audiograbber 1.83.01
#
DISCID=2d060d06
DTITLE=Cody Jinks - Blacksheep
DYEAR=2013
DGENRE=Country
TTITLE0=Big Iron Wheels (R.Hellner/C.Jinks)
TTITLE1=Old Friend (C.Jinks)
TTITLE2=Blacksheep (C.Jinks)
TTITLE3=Johnny (C.Jinks)
TTITLE4=Little Train (C.Jinks/ M.E.Jinks)
TTITLE5=Fast Hand (C.Jinks)
EXTD=
EXTT0=
EXTT1=
EXTT2=
EXTT3=
EXTT4=
EXTT5=
PLAYORDER=
